<mxfile host="app.diagrams.net" agent="Mozilla/5.0 (Macintosh; Intel Mac OS X 10_15_7) AppleWebKit/537.36 (KHTML, like Gecko) Chrome/126.0.0.0 Safari/537.36" version="24.7.6">
  <diagram name="Page-1" id="W_ccpKyYiNM1ykgH1tg-">
    <mxGraphModel dx="954" dy="581" grid="1" gridSize="10" guides="1" tooltips="1" connect="1" arrows="1" fold="1" page="1" pageScale="1" pageWidth="850" pageHeight="1100" math="0" shadow="0">
      <root>
        <mxCell id="0" />
        <mxCell id="1" parent="0" />
        <mxCell id="WIDebgfAZPP5Q4-YXuP7-1" value="&lt;div style=&quot;&quot;&gt;&lt;span style=&quot;background-color: initial;&quot;&gt;&lt;b&gt;users&lt;/b&gt;&lt;/span&gt;&lt;/div&gt;&lt;div style=&quot;&quot;&gt;&lt;span style=&quot;background-color: initial;&quot;&gt;&lt;b&gt;&lt;br&gt;&lt;/b&gt;&lt;/span&gt;&lt;/div&gt;&lt;div style=&quot;&quot;&gt;&lt;span style=&quot;background-color: initial;&quot;&gt;user_id (PK)&lt;/span&gt;&lt;br&gt;&lt;span style=&quot;background-color: initial;&quot;&gt;telegram_id&lt;/span&gt;&lt;br&gt;&lt;span style=&quot;background-color: initial;&quot;&gt;username&lt;/span&gt;&lt;br&gt;&lt;span style=&quot;background-color: initial;&quot;&gt;referred_by (FK)&lt;/span&gt;&lt;/div&gt;" style="rounded=0;whiteSpace=wrap;html=1;align=left;" vertex="1" parent="1">
          <mxGeometry x="280" y="80" width="100" height="120" as="geometry" />
        </mxCell>
      </root>
    </mxGraphModel>
  </diagram>
</mxfile>
